<svg width="24" height="24" viewBox="0 0 24 24" fill="none" xmlns="http://www.w3.org/2000/svg">
<path d="M21.1909 12.682C18.6909 18.092 12.5709 20.882 12.3109 21.002C12.1116 21.0803 11.8901 21.0803 11.6909 21.002C11.4409 20.882 5.31086 18.092 2.81086 12.682C1.26086 9.31204 2.12086 5.68204 3.81086 4.12204C4.40283 3.61476 5.10665 3.2551 5.86456 3.07258C6.62247 2.89005 7.41287 2.88987 8.17086 3.07204C9.72186 3.4246 11.0764 4.36344 11.9509 5.69204C12.827 4.36059 14.1858 3.42127 15.7409 3.07204C16.4989 2.88987 17.2893 2.89005 18.0472 3.07258C18.8051 3.2551 19.5089 3.61476 20.1009 4.12204C21.8809 5.68204 22.7509 9.31204 21.1909 12.682Z" fill="#FF0000"/>
</svg>
