<svg id="Layer_1" data-name="Layer 1" xmlns="http://www.w3.org/2000/svg" xmlns:xlink="http://www.w3.org/1999/xlink" width="800" height="239" viewBox="0 0 800 239"><defs><style>.cls-1{fill:none;}.cls-2{clip-path:url(#clip-path);}.cls-3{fill:#5f70db;}.cls-3,.cls-4{fill-rule:evenodd;}</style><clipPath id="clip-path" transform="translate(0 -280.5)"><rect class="cls-1" x="26.5" y="300.91" width="747" height="198.18"/></clipPath></defs><title>paybis_logo-freelogovectors.net_</title><g class="cls-2"><path class="cls-3" d="M124.74,306.78V493.19c-48.49,0-89.54-42.65-89.54-93.19S76.25,306.78,124.74,306.78Z" transform="translate(0 -280.5)"/><polygon points="460.45 129.02 440.05 75.25 403.4 75.25 442.88 165.84 426.45 209.78 458.75 209.78 511.64 75.25 479.34 75.25 460.45 129.02"/><path d="M767.84,385.62c-2.26-24.09-19.27-32.57-43.64-32.57-22.85,0-42.31,10.79-42.31,33.15,0,21,11.15,28.91,37.59,32.38,13.6,1.93,18.33,4.24,18.33,9.06,0,5-3.78,8.29-12.09,8.29-9.64,0-12.85-4.05-14-11.37H680.57c.75,22.35,17.19,34.3,45.33,34.3,27.4,0,44.78-10.79,44.78-34.69,0-21.59-13.23-28.91-40.62-32.38-12.09-1.54-16.62-3.47-16.62-8.29,0-4.62,3.77-7.9,11.14-7.9,7.75,0,11.34,3.28,12.66,10Z" transform="translate(0 -280.5)"/><rect x="636.75" y="75.25" width="33.81" height="100.81"/><path d="M672.26,328.37c0-10.21-8.12-17.92-18.7-17.92s-18.51,7.71-18.51,17.92,7.93,17.74,18.51,17.74S672.26,338.59,672.26,328.37Z" transform="translate(0 -280.5)"/><path class="cls-4" d="M223.68,405.09c0-17,7.36-26,19.64-26,11.9,0,19.46,8.48,19.46,26.21v1.54c0,16.58-6.8,25.64-19.46,25.64-12.28,0-19.64-8.67-19.64-25.83Zm31.73-52c23,0,41.75,17.73,41.75,52.23v1.54c0,34.7-18.7,52-41.94,52-14.92,0-25.69-7.13-30.6-17.15v48.57H190.81V355.75h33.81v15C230.29,361.14,240.49,353.05,255.41,353.05Z" transform="translate(0 -280.5)"/><path class="cls-4" d="M358.35,415.11h8.88v6.17c0,8.67-7.18,14.26-16.81,14.26-7.94,0-11.72-3.66-11.72-9.44C338.7,417.81,344.75,415.11,358.35,415.11Zm-2.08-62.06c27.21,0,44.58,11.37,44.58,38.16v65.34H368V444.79c-4.72,7.33-13.41,14.07-29.28,14.07-17.75,0-33.43-8.86-33.43-30.26,0-23.7,19.64-33,52.51-33h9.45v-2.31c0-9.64-2.27-16-13-16-9.25,0-12.65,5.59-13.41,11.95H309C310.56,365,329.26,353.05,356.27,353.05Z" transform="translate(0 -280.5)"/><path class="cls-4" d="M553.12,405.09c0-17,7.37-26,19.64-26,11.91,0,19.46,8.48,19.46,26.21v1.54c0,16.58-6.8,25.64-19.46,25.64-12.27,0-19.64-8.67-19.64-25.83Zm.94-93.68v59.37c5.67-9.64,15.87-17.73,30.8-17.73,23,0,41.74,17.73,41.74,52.23v1.54c0,34.7-18.7,52-41.93,52-14.74,0-25.7-7.13-30.61-17.92v15.61H520.25V311.41Z" transform="translate(0 -280.5)"/></g><path d="M26.5,400a99.07,99.07,0,0,1,99.09-99.09V499.09A99.07,99.07,0,0,1,26.5,400Z" transform="translate(0 -280.5)"/><rect class="cls-1" width="800" height="239"/></svg>