<?xml version="1.0" encoding="utf-8"?>
<!-- Generator: Adobe Illustrator 25.4.1, SVG Export Plug-In . SVG Version: 6.00 Build 0)  -->
<svg version="1.0" id="katman_1" xmlns="http://www.w3.org/2000/svg" xmlns:xlink="http://www.w3.org/1999/xlink" x="0px" y="0px"
	 viewBox="0 0 800 600" style="enable-background:new 0 0 800 600;" xml:space="preserve">
<style type="text/css">
	.st0{fill-rule:evenodd;clip-rule:evenodd;fill:#1D1D1B;}
	.st1{fill:#1D1D1B;}
</style>
<g>
	<g>
		<path class="st0" d="M550.3,311.4l-6.5,10.6c4.7,4.6,11.2,7.4,20.2,7.4c12.7,0,20.1-7.4,20.1-18.2c0-11.8-9.4-15.5-16.6-18.3
			c-4.5-1.8-8.2-3.2-8.2-6.1c0-2.6,1.8-4.4,5.3-4.4c4.3,0,8.7,1.5,12.2,4.7l6.3-10.3c-4.6-4.2-10.9-6.5-18-6.5
			c-12.7,0-19.6,8.4-19.6,17.5c0,12.1,9.2,15.5,16.4,18.3c4.6,1.7,8.4,3.2,8.4,6.4c0,2.8-2.4,4.9-6.4,4.9
			C558.5,317.5,553.6,315,550.3,311.4z M288.9,328.4v-45h-12v-12.1h37.5v12.1h-11.9v45H288.9z M366.1,328.4l-7.4-19.6h-5v19.6h-13.6
			v-57.1h22.8c10.9,0,17.9,8,17.9,18.6c0,9.7-4.9,14.6-9.1,16.4l9.5,22.1H366.1z M367,290.1c0-4.2-2.6-6.7-6.2-6.7h-7.1v13.4h7.1
			C364.4,296.8,367,294.3,367,290.1z M435.3,319.7l2.1,8.7h14.7l-16.5-57.1h-16.4l-16.5,57.1h14.7l2.1-8.7H435.3z M422.2,307.6
			l5.3-21.9l5.2,21.9H422.2z M506.1,328.4l-17-30v30h-13.6v-57.1h13.8l16,28.6v-28.6h13.5v57.1H506.1z M639.6,328.4l-2.1-8.7h-15.9
			l-2.1,8.7h-14.7l16.5-57.1h16.4l16.5,57.1H639.6z M629.6,285.7l-5.3,21.9h10.5L629.6,285.7z M694.8,307.6l11.2,20.9h16l-18.6-30.4
			l17.5-26.7h-15.8l-13.8,24.1v-24.1h-13.6v57.1h13.6v-14.9L694.8,307.6z"/>
		<path class="st1" d="M215.9,293.7L185.3,263c0,0-0.1-0.1-0.1-0.1c-0.2-0.2-0.3-0.3-0.5-0.5c-0.1-0.1-0.2-0.1-0.3-0.2
			c-0.1-0.1-0.3-0.2-0.4-0.3c-0.1-0.1-0.2-0.1-0.3-0.2c-0.1-0.1-0.3-0.2-0.4-0.2c-0.1-0.1-0.2-0.1-0.3-0.2c-0.1-0.1-0.3-0.1-0.4-0.2
			c-0.1,0-0.2-0.1-0.3-0.1c-0.2-0.1-0.3-0.1-0.5-0.2c-0.1,0-0.2-0.1-0.3-0.1c-0.2,0-0.3-0.1-0.5-0.1c-0.1,0-0.2,0-0.4-0.1
			c-0.2,0-0.3-0.1-0.5-0.1c-0.2,0-0.4,0-0.6,0c-0.1,0-0.2,0-0.3,0c-0.1,0-0.1,0-0.2,0c-0.2,0-0.4,0-0.6,0c-0.1,0-0.3,0-0.4,0.1
			c-0.1,0-0.3,0-0.4,0.1c-0.2,0-0.3,0.1-0.4,0.1c-0.1,0-0.3,0.1-0.4,0.1c-0.1,0-0.3,0.1-0.4,0.1c-0.1,0-0.3,0.1-0.4,0.1
			c-0.1,0.1-0.2,0.1-0.4,0.2c-0.1,0.1-0.3,0.1-0.4,0.2c-0.1,0.1-0.2,0.1-0.3,0.2c-0.1,0.1-0.3,0.2-0.4,0.3c-0.1,0.1-0.2,0.2-0.3,0.2
			c-0.1,0.1-0.2,0.2-0.4,0.3c-0.2,0.1-0.3,0.3-0.5,0.5c0,0-0.1,0.1-0.1,0.1l-46.3,46.3v-40.1c0-4.8-3.9-8.8-8.8-8.8
			c-4.8,0-8.8,3.9-8.8,8.8v40.4l-15.1-15.1c-3.4-3.4-9-3.4-12.4,0c-3.4,3.4-3.4,9,0,12.4l29.9,29.9c1.7,1.7,4,2.6,6.2,2.6
			c0,0,0.1,0,0.1,0c0,0,0.1,0,0.1,0c2.9,0,5.5-1.4,7.1-3.7l45.4-45.4v40.3c0,4.8,3.9,8.8,8.8,8.8c4.8,0,8.8-3.9,8.8-8.8v-40.3
			l15.6,15.6c3.4,3.4,9,3.4,12.4,0C219.3,302.6,219.3,297.1,215.9,293.7z"/>
	</g>
</g>
</svg>
